<svg width="16" height="16" viewBox="0 0 16 16" fill="none" xmlns="http://www.w3.org/2000/svg">
<path d="M13.6769 6.48563L8.67688 1.76813C8.67443 1.766 8.67213 1.7637 8.67 1.76126C8.48591 1.59384 8.24602 1.50107 7.99719 1.50107C7.74836 1.50107 7.50846 1.59384 7.32438 1.76126L7.3175 1.76813L2.32312 6.48563C2.22125 6.57931 2.13993 6.69312 2.08431 6.81985C2.02869 6.94658 1.99998 7.08348 2 7.22188V13C2 13.2652 2.10536 13.5196 2.29289 13.7071C2.48043 13.8946 2.73478 14 3 14H6C6.26522 14 6.51957 13.8946 6.70711 13.7071C6.89464 13.5196 7 13.2652 7 13V10H9V13C9 13.2652 9.10536 13.5196 9.29289 13.7071C9.48043 13.8946 9.73478 14 10 14H13C13.2652 14 13.5196 13.8946 13.7071 13.7071C13.8946 13.5196 14 13.2652 14 13V7.22188C14 7.08348 13.9713 6.94658 13.9157 6.81985C13.8601 6.69312 13.7788 6.57931 13.6769 6.48563ZM13 13H10V10C10 9.73479 9.89464 9.48044 9.70711 9.2929C9.51957 9.10536 9.26522 9.00001 9 9.00001H7C6.73478 9.00001 6.48043 9.10536 6.29289 9.2929C6.10536 9.48044 6 9.73479 6 10V13H3V7.22188L3.00688 7.21563L8 2.50001L12.9937 7.21438L13.0006 7.22063L13 13Z" fill="#FBFBFE"/>
</svg>
